<svg width="715" height="508" viewBox="0 0 715 508" fill="none" xmlns="http://www.w3.org/2000/svg">
<g filter="url(#filter0_d_1793_63310)">
<g clip-path="url(#clip0_1793_63310)">
<path d="M137.764 37.6084H556.205C559.267 37.6084 561.75 40.0902 561.75 43.1523V60.5264H132.22V43.1523C132.22 40.0903 134.702 37.6086 137.764 37.6084Z" fill="#F1F5F9"/>
<path d="M137.764 37.6084H556.205C559.267 37.6084 561.75 40.0902 561.75 43.1523V60.5264H132.22V43.1523C132.22 40.0903 134.702 37.6086 137.764 37.6084Z" stroke="#DBE1E8" stroke-width="0.739296"/>
<circle cx="143.678" cy="49.2384" r="2.95718" fill="#F4544D"/>
<circle cx="152.549" cy="49.2384" r="2.95718" fill="#F9BD2F"/>
<circle cx="161.422" cy="49.2384" r="2.95718" fill="#42CB41"/>
<g clip-path="url(#clip1_1793_63310)">
<path d="M131.85 60.1562H562.12V323.085C562.12 326.351 559.472 328.999 556.205 328.999H137.764C134.498 328.999 131.85 326.351 131.85 323.085V60.1562Z" fill="white"/>
<rect x="149.592" y="107.473" width="65.058" height="56.1865" rx="5.91436" fill="#D4DBE3"/>
<rect x="149.592" y="77.9023" width="65.058" height="17.7431" rx="5.91436" fill="#D4DBE3"/>
<rect x="226.482" y="77.8984" width="65.058" height="17.7431" rx="5.91436" fill="#D4DBE3"/>
<rect x="303.369" y="77.8984" width="65.058" height="17.7431" rx="5.91436" fill="#10494C"/>
<rect x="380.252" y="77.8984" width="65.058" height="17.7431" rx="5.91436" fill="#D4DBE3"/>
<rect x="457.143" y="77.9023" width="65.058" height="17.7431" rx="5.91436" fill="#D4DBE3"/>
<rect x="534.025" y="77.9023" width="65.058" height="17.7431" rx="5.91436" fill="#D4DBE3"/>
<rect x="226.482" y="107.473" width="65.058" height="131.595" rx="5.91436" fill="#D4DBE3"/>
<rect x="303.369" y="107.473" width="65.058" height="88.7155" rx="5.91436" fill="#10494C"/>
<rect x="380.252" y="107.473" width="65.058" height="152.295" rx="5.91436" fill="#D4DBE3"/>
<rect x="457.143" y="107.473" width="65.058" height="152.295" rx="5.91436" fill="#D4DBE3"/>
<rect x="534.025" y="107.473" width="65.058" height="131.595" rx="5.91436" fill="#D4DBE3"/>
</g>
<path d="M561.75 60.5264V323.085C561.75 326.147 559.267 328.63 556.205 328.63H137.764C134.702 328.63 132.22 326.147 132.22 323.085V60.5264H561.75Z" stroke="#DBE1E8" stroke-width="0.739296"/>
</g>
</g>
<g filter="url(#filter1_d_1793_63310)">
<g clip-path="url(#clip2_1793_63310)">
<rect x="63.8379" y="187.023" width="230.66" height="230.213" rx="5.91436" fill="white"/>
<rect x="37.3379" y="143.523" width="79" height="79" stroke="#E3EAF1"/>
<rect x="37.3379" y="222.523" width="79" height="79" stroke="#E3EAF1"/>
<rect x="37.3379" y="301.523" width="79" height="79" stroke="#E3EAF1"/>
<rect x="37.3379" y="380.523" width="79" height="79" stroke="#E3EAF1"/>
<rect x="116.338" y="143.523" width="79" height="79" stroke="#E3EAF1"/>
<rect x="116.338" y="222.523" width="79" height="79" stroke="#E3EAF1"/>
<rect x="116.338" y="301.523" width="79" height="79" stroke="#E3EAF1"/>
<rect x="116.338" y="380.523" width="79" height="79" stroke="#E3EAF1"/>
<rect x="195.338" y="143.523" width="79" height="79" stroke="#E3EAF1"/>
<rect x="195.338" y="222.523" width="79" height="79" stroke="#E3EAF1"/>
<rect x="195.338" y="301.523" width="79" height="79" stroke="#E3EAF1"/>
<rect x="195.338" y="380.523" width="79" height="79" stroke="#E3EAF1"/>
<rect x="274.338" y="143.523" width="79" height="79" stroke="#E3EAF1"/>
<rect x="274.338" y="222.523" width="79" height="79" stroke="#E3EAF1"/>
<rect x="274.338" y="301.523" width="79" height="79" stroke="#E3EAF1"/>
<rect x="274.338" y="380.523" width="79" height="79" stroke="#E3EAF1"/>
<rect x="234.615" y="224.727" width="145.641" height="35.4862" rx="5.91436" fill="#3F90E6"/>
<rect x="117.068" y="283.133" width="205.524" height="35.4862" rx="5.91436" fill="#10494C"/>
<rect x="259.752" y="341.535" width="134.552" height="35.4862" rx="5.91436" fill="#D4DBE3"/>
<rect x="55.709" y="341.535" width="80.5832" height="35.4862" rx="5.91436" fill="#F1F5F9"/>
</g>
<rect x="64.2075" y="187.393" width="229.921" height="229.474" rx="5.54472" stroke="#DBE1E8" stroke-width="0.739296"/>
</g>
<g filter="url(#filter2_d_1793_63310)">
<rect x="473.408" y="123.57" width="177.431" height="177.087" rx="5.91436" fill="#10494C"/>
<rect x="491.15" y="145.75" width="118.287" height="17.7431" rx="5.91436" fill="white"/>
<rect x="491.15" y="175.32" width="73.1903" height="17.7431" rx="5.91436" fill="white"/>
<rect x="491.15" y="204.891" width="136.03" height="17.7431" rx="5.91436" fill="#F9E8B7"/>
<rect x="491.15" y="234.465" width="99.8049" height="17.7431" rx="5.91436" fill="white"/>
<rect x="491.15" y="264.035" width="56.1865" height="17.7431" rx="5.91436" fill="white"/>
</g>
<defs>
<filter id="filter0_d_1793_63310" x="68.0114" y="-0.00066185" width="557.946" height="419.872" filterUnits="userSpaceOnUse" color-interpolation-filters="sRGB">
<feFlood flood-opacity="0" result="BackgroundImageFix"/>
<feColorMatrix in="SourceAlpha" type="matrix" values="0 0 0 0 0 0 0 0 0 0 0 0 0 0 0 0 0 0 127 0" result="hardAlpha"/>
<feOffset dy="26.5993"/>
<feGaussianBlur stdDeviation="31.9191"/>
<feColorMatrix type="matrix" values="0 0 0 0 0.286275 0 0 0 0 0.313726 0 0 0 0 0.34902 0 0 0 0.15 0"/>
<feBlend mode="normal" in2="BackgroundImageFix" result="effect1_dropShadow_1793_63310"/>
<feBlend mode="normal" in="SourceGraphic" in2="effect1_dropShadow_1793_63310" result="shape"/>
</filter>
<filter id="filter1_d_1793_63310" x="-0.000305176" y="149.784" width="358.337" height="357.891" filterUnits="userSpaceOnUse" color-interpolation-filters="sRGB">
<feFlood flood-opacity="0" result="BackgroundImageFix"/>
<feColorMatrix in="SourceAlpha" type="matrix" values="0 0 0 0 0 0 0 0 0 0 0 0 0 0 0 0 0 0 127 0" result="hardAlpha"/>
<feOffset dy="26.5993"/>
<feGaussianBlur stdDeviation="31.9191"/>
<feColorMatrix type="matrix" values="0 0 0 0 0.286275 0 0 0 0 0.313726 0 0 0 0 0.34902 0 0 0 0.15 0"/>
<feBlend mode="normal" in2="BackgroundImageFix" result="effect1_dropShadow_1793_63310"/>
<feBlend mode="normal" in="SourceGraphic" in2="effect1_dropShadow_1793_63310" result="shape"/>
</filter>
<filter id="filter2_d_1793_63310" x="409.57" y="86.3314" width="305.108" height="304.762" filterUnits="userSpaceOnUse" color-interpolation-filters="sRGB">
<feFlood flood-opacity="0" result="BackgroundImageFix"/>
<feColorMatrix in="SourceAlpha" type="matrix" values="0 0 0 0 0 0 0 0 0 0 0 0 0 0 0 0 0 0 127 0" result="hardAlpha"/>
<feOffset dy="26.5993"/>
<feGaussianBlur stdDeviation="31.9191"/>
<feColorMatrix type="matrix" values="0 0 0 0 0.286275 0 0 0 0 0.313726 0 0 0 0 0.34902 0 0 0 0.15 0"/>
<feBlend mode="normal" in2="BackgroundImageFix" result="effect1_dropShadow_1793_63310"/>
<feBlend mode="normal" in="SourceGraphic" in2="effect1_dropShadow_1793_63310" result="shape"/>
</filter>
<clipPath id="clip0_1793_63310">
<rect width="430.27" height="292.194" fill="white" transform="translate(131.85 37.2383)"/>
</clipPath>
<clipPath id="clip1_1793_63310">
<path d="M131.85 60.1562H562.12V323.085C562.12 326.351 559.472 328.999 556.205 328.999H137.764C134.498 328.999 131.85 326.351 131.85 323.085V60.1562Z" fill="white"/>
</clipPath>
<clipPath id="clip2_1793_63310">
<rect x="63.8379" y="187.023" width="230.66" height="230.213" rx="5.91436" fill="white"/>
</clipPath>
</defs>
</svg>
